<?xml version="1.0" encoding="UTF-8"?>
<svg version="1.1" xmlns="http://www.w3.org/2000/svg" width="230" height="221">
<path d="M0 0 C2.97151477 1.42619578 5.06359013 2.81806307 7.39160156 5.16455078 C8.35214447 6.12532028 8.35214447 6.12532028 9.33209229 7.10549927 C10.01140808 7.79513763 10.69072388 8.484776 11.390625 9.1953125 C12.09523865 9.90275604 12.79985229 10.61019958 13.52581787 11.33908081 C15.7719539 13.59639862 18.01103009 15.86057633 20.25 18.125 C21.77297717 19.65800953 23.29640939 21.19056715 24.8203125 22.72265625 C28.55216927 26.47654685 32.27784843 30.23648903 36 34 C31.69682388 39.14249007 27.1865617 43.9521007 22.43408203 48.67944336 C21.70168808 49.41198334 20.96929413 50.14452332 20.21470642 50.89926147 C17.81477343 53.29850275 15.41132745 55.69419129 13.0078125 58.08984375 C11.3346507 59.76113873 9.66171085 61.43265592 7.98898315 63.10438538 C3.60182061 67.48774351 -0.78833757 71.86808925 -5.17913818 76.24780273 C-9.6655185 80.72392418 -14.14904292 85.20290426 -18.6328125 89.68164062 C-27.41909099 98.45721843 -36.2085386 107.22961471 -45 116 C-56.66666667 104.33333333 -68.33333333 92.66666667 -80 81 C-75.7237549 75.89158298 -71.24775843 71.10890952 -66.52587891 66.41235352 C-65.80323853 65.68956711 -65.08059814 64.9667807 -64.33605957 64.22209167 C-61.96859215 61.85531584 -59.59761225 59.49209281 -57.2265625 57.12890625 C-55.57582093 55.48003154 -53.92530133 53.83093458 -52.2749939 52.18162537 C-47.94701522 47.85745076 -43.61604101 43.5362887 -39.28442383 39.21575928 C-34.85836624 34.7999613 -30.43516519 30.381304 -26.01171875 25.96289062 C-17.3439301 17.30580205 -8.67297231 8.65189519 0 0 Z " fill="#000000" transform="translate(134,44)"/>
<path d="M0 0 C6.25149105 5.15791066 11.92314572 10.80873808 17.625 16.5625 C18.553125 17.49513672 19.48125 18.42777344 20.4375 19.38867188 C22.16474021 21.12457303 23.89094423 22.86150633 25.61572266 24.59985352 C27.310691 26.30610314 29.02031035 27.99785298 30.73974609 29.67944336 C33 32 33 32 34 34 C32.83082031 34.02578125 31.66164062 34.0515625 30.45703125 34.078125 C28.90881774 34.13442367 27.3606421 34.19177062 25.8125 34.25 C25.04357422 34.26417969 24.27464844 34.27835938 23.48242188 34.29296875 C18.30009637 34.51538615 15.95751657 35.43965356 12 39 C10.1746875 39.061875 10.1746875 39.061875 8.3125 39.125 C3.75738555 39.41148519 1.79845989 41.84735738 -1.26953125 45.0546875 C-2.15874268 45.97491699 -3.0479541 46.89514648 -3.96411133 47.84326172 C-4.63595459 48.55498535 -5.30779785 49.26670898 -6 50 C-4.0485054 50.20885078 -4.0485054 50.20885078 -2.05758667 50.42192078 C10.43685116 51.75913807 22.93124503 53.09676546 35.42560005 54.43475628 C41.84312021 55.12198099 48.26065379 55.80907984 54.67822266 56.49584961 C87.12203329 59.96790015 119.56345487 63.46067692 152 67 C152 67.33 152 67.66 152 68 C93.59 68 35.18 68 -25 68 C-25 50 -25 50 -20.625 44.11328125 C-18.79339541 42.46352883 -16.91663885 40.86264642 -15 39.3125 C-7.84315101 33.9597149 -7.84315101 33.9597149 -4.625 26.29296875 C-4.74875 25.20628906 -4.8725 24.11960938 -5 23 C-4.35546875 22.04867187 -3.7109375 21.09734375 -3.046875 20.1171875 C-0.37146815 16.04280837 -0.33888133 12.8922714 -0.25 8.125 C-0.20552734 6.949375 -0.20552734 6.949375 -0.16015625 5.75 C-0.090054 3.83387193 -0.04269342 1.91693463 0 0 Z " fill="#000001" transform="translate(46,133)"/>
<path d="M0 0 C7.6257161 4.78607007 16.81609932 12.3823408 19.26171875 21.359375 C20.00538175 27.66522975 19.49209638 31.85148094 15.609375 36.96484375 C12.4107505 40.44879156 9.06983899 43.74212156 5.609375 46.96484375 C2.65672388 45.63489992 0.58587284 44.18705059 -1.69042969 41.89208984 C-2.31077087 41.2715976 -2.93111206 40.65110535 -3.57025146 40.0118103 C-4.22769348 39.34404572 -4.8851355 38.67628113 -5.5625 37.98828125 C-6.5861264 36.96041 -6.5861264 36.96041 -7.63043213 35.91177368 C-9.80524098 33.7257853 -11.97298572 31.53293946 -14.140625 29.33984375 C-15.6154249 27.8550112 -17.09068006 26.37063069 -18.56640625 24.88671875 C-22.17977948 21.25131465 -25.78683353 17.60974551 -29.390625 13.96484375 C-26.477309 7.90150972 -21.42958257 2.72952152 -15.3984375 -0.3671875 C-10.25419596 -2.0785986 -5.00163974 -2.1657427 0 0 Z " fill="#000000" transform="translate(172.390625,23.03515625)"/>
<path d="" fill="#FFFFFF" transform="translate(0,0)"/>
<path d="" fill="#FFFFFF" transform="translate(0,0)"/>
<path d="" fill="#FFFFFF" transform="translate(0,0)"/>
<path d="" fill="#FFFFFF" transform="translate(0,0)"/>
<path d="" fill="#FFFFFF" transform="translate(0,0)"/>
<path d="" fill="#FFFFFF" transform="translate(0,0)"/>
<path d="" fill="#FFFFFF" transform="translate(0,0)"/>
<path d="" fill="#FFFFFF" transform="translate(0,0)"/>
<path d="" fill="#FFFFFF" transform="translate(0,0)"/>
<path d="" fill="#FFFFFF" transform="translate(0,0)"/>
<path d="" fill="#FFFFFF" transform="translate(0,0)"/>
<path d="" fill="#FFFFFF" transform="translate(0,0)"/>
<path d="" fill="#FFFFFF" transform="translate(0,0)"/>
<path d="" fill="#FFFFFF" transform="translate(0,0)"/>
<path d="" fill="#FFFFFF" transform="translate(0,0)"/>
<path d="" fill="#FFFFFF" transform="translate(0,0)"/>
<path d="" fill="#FFFFFF" transform="translate(0,0)"/>
<path d="" fill="#FFFFFF" transform="translate(0,0)"/>
<path d="" fill="#FFFFFF" transform="translate(0,0)"/>
<path d="" fill="#FFFFFF" transform="translate(0,0)"/>
<path d="" fill="#FFFFFF" transform="translate(0,0)"/>
<path d="" fill="#FFFFFF" transform="translate(0,0)"/>
<path d="" fill="#FFFFFF" transform="translate(0,0)"/>
<path d="" fill="#FFFFFF" transform="translate(0,0)"/>
<path d="" fill="#FFFFFF" transform="translate(0,0)"/>
<path d="" fill="#FFFFFF" transform="translate(0,0)"/>
<path d="" fill="#FFFFFF" transform="translate(0,0)"/>
<path d="" fill="#FFFFFF" transform="translate(0,0)"/>
<path d="" fill="#FFFFFF" transform="translate(0,0)"/>
<path d="" fill="#FFFFFF" transform="translate(0,0)"/>
<path d="" fill="#FFFFFF" transform="translate(0,0)"/>
<path d="" fill="#FFFFFF" transform="translate(0,0)"/>
<path d="" fill="#FFFFFF" transform="translate(0,0)"/>
<path d="" fill="#FFFFFF" transform="translate(0,0)"/>
<path d="" fill="#FFFFFF" transform="translate(0,0)"/>
<path d="" fill="#FFFFFF" transform="translate(0,0)"/>
<path d="" fill="#FFFFFF" transform="translate(0,0)"/>
<path d="" fill="#FFFFFF" transform="translate(0,0)"/>
<path d="" fill="#FFFFFF" transform="translate(0,0)"/>
<path d="" fill="#FFFFFF" transform="translate(0,0)"/>
<path d="" fill="#FFFFFF" transform="translate(0,0)"/>
<path d="" fill="#FFFFFF" transform="translate(0,0)"/>
<path d="" fill="#FFFFFF" transform="translate(0,0)"/>
<path d="" fill="#FFFFFF" transform="translate(0,0)"/>
<path d="" fill="#FFFFFF" transform="translate(0,0)"/>
<path d="" fill="#FFFFFF" transform="translate(0,0)"/>
<path d="" fill="#FFFFFF" transform="translate(0,0)"/>
<path d="" fill="#FFFFFF" transform="translate(0,0)"/>
<path d="" fill="#FFFFFF" transform="translate(0,0)"/>
<path d="" fill="#FFFFFF" transform="translate(0,0)"/>
<path d="" fill="#FFFFFF" transform="translate(0,0)"/>
<path d="" fill="#FFFFFF" transform="translate(0,0)"/>
<path d="" fill="#FFFFFF" transform="translate(0,0)"/>
<path d="" fill="#FFFFFF" transform="translate(0,0)"/>
<path d="" fill="#FFFFFF" transform="translate(0,0)"/>
<path d="" fill="#FFFFFF" transform="translate(0,0)"/>
<path d="" fill="#FFFFFF" transform="translate(0,0)"/>
<path d="" fill="#FFFFFF" transform="translate(0,0)"/>
<path d="" fill="#FFFFFF" transform="translate(0,0)"/>
<path d="" fill="#FFFFFF" transform="translate(0,0)"/>
<path d="" fill="#FFFFFF" transform="translate(0,0)"/>
<path d="" fill="#FFFFFF" transform="translate(0,0)"/>
<path d="" fill="#FFFFFF" transform="translate(0,0)"/>
<path d="" fill="#FFFFFF" transform="translate(0,0)"/>
<path d="" fill="#FFFFFF" transform="translate(0,0)"/>
<path d="" fill="#FFFFFF" transform="translate(0,0)"/>
<path d="" fill="#FFFFFF" transform="translate(0,0)"/>
</svg>
