<?xml version="1.0" encoding="UTF-8"?>
<svg version="1.1" xmlns="http://www.w3.org/2000/svg" width="966" height="258">
<path d="M0 0 C1.12474731 -0.00855011 1.12474731 -0.00855011 2.2722168 -0.01727295 C3.83478441 -0.02658654 5.39737045 -0.03320127 6.95996094 -0.03710938 C9.30959875 -0.04686296 11.65837644 -0.07803613 14.0078125 -0.109375 C28.20530014 -0.20964633 42.13516455 1.29894591 53.33984375 10.94921875 C61.09030166 19.1067029 65.0162623 29.17668738 66.3125 40.203125 C66.47685547 41.23759766 66.47685547 41.23759766 66.64453125 42.29296875 C69.16936048 59.83211583 68.70013891 81.62443177 57.8125 96.265625 C55.54445705 99.11614262 53.67747919 100.77891232 50.3125 102.203125 C50.3125 102.863125 50.3125 103.523125 50.3125 104.203125 C29.60827844 116.88894861 1.2523227 112.41048409 -21.6875 111.203125 C-21.6875 74.903125 -21.6875 38.603125 -21.6875 1.203125 C-6.58197769 0.04116175 -6.58197769 0.04116175 0 0 Z M4.3125 21.203125 C4.3125 43.973125 4.3125 66.743125 4.3125 90.203125 C23.61735863 91.93961128 23.61735863 91.93961128 32.3125 86.203125 C34.0740238 84.21059704 34.0740238 84.21059704 35.125 81.953125 C35.50269531 81.24671875 35.88039063 80.5403125 36.26953125 79.8125 C39.40643522 71.96436572 39.64891989 64.7000857 39.625 56.328125 C39.64111328 55.20792969 39.65722656 54.08773437 39.67382812 52.93359375 C39.6795091 43.19639537 38.08696864 34.22322034 32.3125 26.203125 C23.61239427 20.52858477 23.61239427 20.52858477 4.3125 21.203125 Z " fill="#000000" transform="translate(656.6875,75.796875)"/>
<path d="M0 0 C6.19881348 5.2345536 10.06670366 11.2128907 13.92138672 18.31201172 C15.92787457 21.98157126 18.16634629 25.14585374 20.8125 28.375 C21.22089111 27.67415283 21.62928223 26.97330566 22.05004883 26.2512207 C23.90803651 23.06312172 25.76651335 19.87530814 27.625 16.6875 C28.26759766 15.58470703 28.91019531 14.48191406 29.57226562 13.34570312 C30.50522461 11.7456543 30.50522461 11.7456543 31.45703125 10.11328125 C32.02784424 9.13399658 32.59865723 8.15471191 33.18676758 7.14575195 C33.99150513 5.77422974 33.99150513 5.77422974 34.8125 4.375 C35.32868896 3.4480835 35.84487793 2.52116699 36.37670898 1.56616211 C37.8125 -0.625 37.8125 -0.625 40.140625 -1.421875 C48.64105182 -2.06810628 55.87258355 -1.9934494 63.8125 1.375 C63.15501217 4.76235392 61.84929185 7.2749731 60.08203125 10.2265625 C59.24768555 11.62841797 59.24768555 11.62841797 58.39648438 13.05859375 C57.81189453 14.02925781 57.22730469 14.99992187 56.625 16 C56.05974609 16.94746094 55.49449219 17.89492187 54.91210938 18.87109375 C53.77545742 20.77462772 52.63572498 22.67632561 51.49291992 24.57617188 C50.3905089 26.41229566 49.29409944 28.252039 48.2043457 30.09570312 C44.81956927 35.80835164 41.18224402 41.16208918 37.25390625 46.515625 C35.45877874 50.07669096 35.63179666 51.60679786 36.8125 55.375 C38.16073261 57.77717163 38.16073261 57.77717163 39.9375 60 C42.58835814 63.60990844 44.96738397 67.23460977 47.1875 71.125 C49.76400007 75.62090616 52.44396887 80.02062816 55.25 84.375 C55.62415039 84.95709229 55.99830078 85.53918457 56.38378906 86.13891602 C58.2777465 89.06657035 60.20711373 91.96235594 62.19921875 94.82421875 C62.93785156 95.89285156 63.67648437 96.96148437 64.4375 98.0625 C65.11039063 99.01511719 65.78328125 99.96773438 66.4765625 100.94921875 C66.91742187 101.74972656 67.35828125 102.55023438 67.8125 103.375 C66.8125 106.375 66.8125 106.375 64.984375 107.54296875 C57.41665912 110.72873302 49.79495327 111.85393361 41.7109375 109.85546875 C32.45016985 105.56337781 26.9753206 92.50119462 22.13745117 84.03833008 C21.73373291 83.33345459 21.33001465 82.6285791 20.9140625 81.90234375 C20.55650879 81.27062256 20.19895508 80.63890137 19.83056641 79.98803711 C18.78569048 78.2011499 18.78569048 78.2011499 16.8125 76.375 C16.45534912 76.98384033 16.09819824 77.59268066 15.73022461 78.2199707 C12.30274197 84.05723814 8.85498109 89.88201912 5.39355469 95.69921875 C4.10945572 97.87243133 2.84798792 100.05512841 1.6015625 102.25 C1.03179687 103.219375 0.46203125 104.18875 -0.125 105.1875 C-0.58777344 105.99832031 -1.05054688 106.80914062 -1.52734375 107.64453125 C-4.30251099 110.53723498 -7.57402664 110.25198696 -11.390625 110.54296875 C-17.18977995 110.5983042 -22.54873228 109.69345926 -28.1875 108.375 C-29.1875 105.375 -29.1875 105.375 -28.4296875 103.4140625 C-22.65450192 93.21673482 -16.40413183 83.30717086 -10.1875 73.375 C-9.20043225 71.79562828 -8.21344792 70.21620441 -7.2265625 68.63671875 C-5.93462798 66.56920914 -4.64218938 64.50203896 -3.34667969 62.43676758 C-1.25732764 59.10377498 0.80179627 55.75605596 2.8125 52.375 C2.41160156 51.82714844 2.01070313 51.27929688 1.59765625 50.71484375 C-2.38666159 45.15848213 -6.01000418 39.44537542 -9.48242188 33.56079102 C-13.24086114 27.21565188 -17.20056528 21.00320062 -21.2019043 14.80883789 C-23.5792779 11.09176784 -25.7744801 7.5886761 -27.1875 3.375 C-25.62898245 2.55488688 -24.06548284 1.74423787 -22.5 0.9375 C-21.62988281 0.48503906 -20.75976562 0.03257813 -19.86328125 -0.43359375 C-13.20781698 -3.39697565 -6.48991418 -3.3085837 0 0 Z " fill="#000000" transform="translate(474.1875,77.625)"/>
<path d="M0 0 C0.68128967 -0.00175232 1.36257935 -0.00350464 2.06451416 -0.00531006 C4.32688917 -0.00972789 6.58918663 -0.00679084 8.8515625 -0.00341797 C10.4171551 -0.00409103 11.9827476 -0.00506107 13.54833984 -0.00631714 C16.83366895 -0.00779402 20.11897092 -0.00563988 23.40429688 -0.00097656 C27.62476766 0.00472073 31.84517486 0.00144167 36.06564331 -0.00454903 C39.29972822 -0.00815491 42.53379795 -0.00701593 45.7678833 -0.00442123 C47.32448331 -0.00375204 48.88108468 -0.00458012 50.43768311 -0.00690079 C52.60953446 -0.00942777 54.78128146 -0.00558612 56.953125 0 C58.19143066 0.00079559 59.42973633 0.00159119 60.70556641 0.00241089 C63.4765625 0.12939453 63.4765625 0.12939453 64.4765625 1.12939453 C64.60398751 3.89125759 64.66177955 6.61702902 64.6640625 9.37939453 C64.67630859 10.14380859 64.68855469 10.90822266 64.70117188 11.69580078 C64.70310547 12.44216797 64.70503906 13.18853516 64.70703125 13.95751953 C64.71114014 14.63717773 64.71524902 15.31683594 64.71948242 16.01708984 C64.4765625 18.12939453 64.4765625 18.12939453 62.4765625 23.12939453 C48.2865625 23.12939453 34.0965625 23.12939453 19.4765625 23.12939453 C19.4765625 30.05939453 19.4765625 36.98939453 19.4765625 44.12939453 C31.0265625 44.12939453 42.5765625 44.12939453 54.4765625 44.12939453 C55.71138434 47.83386006 55.62214452 51.27369533 55.6015625 55.12939453 C55.60542969 55.85384766 55.60929687 56.57830078 55.61328125 57.32470703 C55.60738177 60.52222332 55.49462048 63.0752206 54.4765625 66.12939453 C42.9265625 66.12939453 31.3765625 66.12939453 19.4765625 66.12939453 C19.4765625 73.38939453 19.4765625 80.64939453 19.4765625 88.12939453 C22.85777344 88.04560547 26.23898437 87.96181641 29.72265625 87.87548828 C32.98247625 87.79817524 36.24233237 87.72260989 39.50219727 87.6472168 C41.77502758 87.59370974 44.04781558 87.53837397 46.32055664 87.48120117 C49.57949699 87.39953237 52.83853086 87.32435202 56.09765625 87.25048828 C57.12056259 87.22345322 58.14346893 87.19641815 59.19737244 87.16856384 C60.13827225 87.14846756 61.07917206 87.12837128 62.04858398 87.10766602 C62.88131332 87.08768051 63.71404266 87.06769501 64.57200623 87.04710388 C66.4765625 87.12939453 66.4765625 87.12939453 67.4765625 88.12939453 C68.03080805 94.38597412 68.12394468 99.78858491 64.4765625 105.12939453 C62.10910678 107.86676521 60.93526545 108.97649355 57.4765625 110.12939453 C55.71400969 110.23217484 53.94787466 110.27786881 52.18237305 110.29052734 C51.10082443 110.30013489 50.01927582 110.30974243 48.904953 110.31964111 C47.73620132 110.32389099 46.56744965 110.32814087 45.36328125 110.33251953 C44.16097366 110.3382196 42.95866608 110.34391968 41.71992493 110.34979248 C39.17372519 110.35924529 36.6275132 110.36577757 34.08129883 110.36962891 C30.19004917 110.37932975 26.29932868 110.41034953 22.40820312 110.44189453 C19.93489897 110.44842508 17.46159104 110.45367535 14.98828125 110.45751953 C13.82560226 110.46986633 12.66292328 110.48221313 11.4650116 110.49493408 C1.32750483 110.46704818 1.32750483 110.46704818 -3.5234375 107.12939453 C-4.94921875 105.40283203 -4.94921875 105.40283203 -5.8359375 103.50439453 C-6.14144531 102.89337891 -6.44695312 102.28236328 -6.76171875 101.65283203 C-8.77542412 94.98178756 -8.65949735 87.86361971 -8.56103516 80.95361328 C-8.55303391 80.08583755 -8.54503265 79.21806183 -8.53678894 78.32398987 C-8.50916108 75.48820381 -8.47360281 72.65258437 -8.4375 69.81689453 C-8.41570803 67.83675499 -8.39425949 65.85661165 -8.37313843 63.87646484 C-8.32782311 59.74441626 -8.27861054 55.61243786 -8.2265625 51.48046875 C-8.15998958 46.17294049 -8.10285456 40.86535961 -8.04853249 35.55769348 C-8.00581714 31.47775817 -7.95836811 27.39788875 -7.90943527 23.31802368 C-7.88648529 21.35952367 -7.86498224 19.40100617 -7.84492874 17.44247437 C-7.81628947 14.7182384 -7.78134148 11.99415699 -7.74462891 9.27001953 C-7.7373024 8.45553848 -7.72997589 7.64105743 -7.72242737 6.80189514 C-7.614379 -0.28876112 -6.93984128 0.00445875 0 0 Z " fill="#000000" transform="translate(371.5234375,76.87060546875)"/>
<path d="M0 0 C2.2423836 0.869319 3.42426452 1.89664549 5.11156654 3.60539627 C5.71188698 4.2059433 6.31220741 4.80649033 6.93071938 5.42523575 C7.56628761 6.07628784 8.20185585 6.72733994 8.85668373 7.39812088 C9.51690529 8.06258728 10.17712685 8.72705368 10.85735512 9.41165543 C12.96323513 11.53432026 15.05844201 13.66718068 17.15355873 15.80046463 C18.57995105 17.24190397 20.00702643 18.68266772 21.43480873 20.12273026 C24.93236467 23.65335296 28.42038438 27.19315516 31.90355873 30.73796463 C30.95141498 31.85449094 29.99845747 32.97032334 29.04516029 34.08586502 C28.24927498 35.01804604 28.24927498 35.01804604 27.43731117 35.96905899 C25.57949551 38.11171286 23.64889819 40.160486 21.65355873 42.17546463 C20.98840248 42.85480057 20.32324623 43.53413651 19.63793373 44.23405838 C17.90355873 45.73796463 17.90355873 45.73796463 15.90355873 45.73796463 C15.64961342 46.33093338 15.39566811 46.92390213 15.13402748 47.53483963 C13.76729499 49.98194162 12.38612891 51.23144417 10.21605873 52.98796463 C6.5833658 56.04811357 3.55653362 59.3418197 0.49340248 62.96062088 C-1.49171391 65.1798542 -3.7631652 66.89590457 -6.09644127 68.73796463 C-6.90081627 69.70733963 -7.70519127 70.67671463 -8.53394127 71.67546463 C-11.14843592 74.80010458 -13.96869591 77.14260146 -17.09644127 79.73796463 C-18.02456627 80.91358963 -18.02456627 80.91358963 -18.97144127 82.11296463 C-21.43006777 85.15009149 -24.1900371 87.51550792 -27.15112877 90.05046463 C-29.59058364 92.16661825 -31.84238179 94.42610876 -34.09644127 96.73796463 C-34.69843346 97.32964432 -35.30042564 97.92132401 -35.92066002 98.53093338 C-36.55616783 99.15612869 -37.19167564 99.78132401 -37.84644127 100.42546463 C-38.43941002 101.00683182 -39.03237877 101.58819901 -39.64331627 102.18718338 C-41.19285931 103.69310437 -41.19285931 103.69310437 -42.09644127 105.73796463 C-42.75644127 105.73796463 -43.41644127 105.73796463 -44.09644127 105.73796463 C-44.09644127 105.07796463 -44.09644127 104.41796463 -44.09644127 103.73796463 C-44.75644127 103.73796463 -45.41644127 103.73796463 -46.09644127 103.73796463 C-47.64722252 102.16374588 -47.64722252 102.16374588 -49.40894127 100.05046463 C-53.66163153 95.06575392 -58.19375085 90.64553738 -63.09644127 86.30046463 C-66.81699723 82.98407621 -69.99090316 79.61988727 -73.09644127 75.73796463 C-73.75644127 75.40796463 -74.41644127 75.07796463 -75.09644127 74.73796463 C-73.79238718 71.86738427 -72.40334157 69.79066069 -70.18741417 67.55478287 C-69.59304054 66.95043411 -68.99866692 66.34608536 -68.38628197 65.723423 C-67.73585426 65.07233063 -67.08542656 64.42123825 -66.41528893 63.7504158 C-65.72891853 63.05572189 -65.04254814 62.36102798 -64.33537865 61.64528275 C-62.06587143 59.35168656 -59.78878105 57.06581633 -57.51050377 54.78093338 C-55.93102896 53.19249494 -54.35163345 51.60397765 -52.77231407 50.01538467 C-49.46220571 46.68878923 -46.14773063 43.36661098 -42.83081627 40.04680252 C-38.57271676 35.78330438 -34.33102513 31.50386903 -30.09309387 27.22033596 C-26.83822256 23.93579662 -23.5722293 20.6624943 -20.30299568 17.39225578 C-18.73355642 15.81859769 -17.16825789 14.24079903 -15.60714149 12.65888405 C-13.42846855 10.45349759 -11.23471349 8.26430789 -9.03638268 6.0785408 C-8.39000343 5.41732727 -7.74362419 4.75611374 -7.0776577 4.07486343 C-6.47764442 3.4846138 -5.87763115 2.89436417 -5.25943565 2.28622818 C-4.74214205 1.76692325 -4.22484844 1.24761831 -3.69187927 0.71257687 C-2.09644127 -0.26203537 -2.09644127 -0.26203537 0 0 Z " fill="#000000" transform="translate(124.0964412689209,70.26203536987305)"/>
<path d="M0 0 C1.00730415 -0.00262848 1.00730415 -0.00262848 2.03495789 -0.00531006 C4.26486765 -0.00972777 6.49469874 -0.00679089 8.72460938 -0.00341797 C10.26778173 -0.00409103 11.81095398 -0.00506108 13.35412598 -0.00631714 C16.59237678 -0.007794 19.83060005 -0.00563993 23.06884766 -0.00097656 C27.2287846 0.00472073 31.38865704 0.00144166 35.54859161 -0.00454903 C38.73635345 -0.00815496 41.92409989 -0.00701591 45.11186218 -0.00442123 C46.6461335 -0.00375205 48.1804062 -0.00458008 49.7146759 -0.00690079 C51.85539478 -0.00942784 53.9960078 -0.00558601 56.13671875 0 C57.96752991 0.00119339 57.96752991 0.00119339 59.83532715 0.00241089 C62.56835938 0.12939453 62.56835938 0.12939453 63.56835938 1.12939453 C64.82421702 15.67940234 64.82421702 15.67940234 61.19335938 20.00439453 C56.87612516 23.49929842 53.64689097 23.26172341 48.27929688 23.22705078 C47.05166122 23.22492836 47.05166122 23.22492836 45.79922485 23.22276306 C43.18056613 23.21715743 40.56199234 23.20460401 37.94335938 23.19189453 C36.16992311 23.18688026 34.3964855 23.18231722 32.62304688 23.17822266 C28.27142518 23.16803628 23.91998756 23.14846204 19.56835938 23.12939453 C19.56835938 30.05939453 19.56835938 36.98939453 19.56835938 44.12939453 C30.78835938 44.12939453 42.00835938 44.12939453 53.56835938 44.12939453 C54.57885073 48.17135996 54.7015358 51.47577185 54.69335938 55.62939453 C54.69722656 57.59392578 54.69722656 57.59392578 54.70117188 59.59814453 C54.56835938 63.12939453 54.56835938 63.12939453 53.56835938 67.12939453 C42.34835937 67.12939453 31.12835937 67.12939453 19.56835938 67.12939453 C19.56835938 80.98939453 19.56835938 94.84939453 19.56835938 109.12939453 C14.08473467 110.69614445 10.94208344 111.38311653 5.50585938 111.31689453 C4.33925781 111.31044922 3.17265625 111.30400391 1.97070312 111.29736328 C-1.24358018 111.1386788 -4.26646023 110.68524867 -7.43164062 110.12939453 C-7.45497092 95.93483412 -7.47255403 81.74027666 -7.4834528 67.54570103 C-7.48868235 60.95534668 -7.49578129 54.36500516 -7.50708008 47.7746582 C-7.51790641 41.42047435 -7.52391692 35.06630288 -7.52651787 28.71211052 C-7.52837258 26.28189842 -7.53199406 23.85168704 -7.53737068 21.42148018 C-7.54457773 18.03056472 -7.54563171 14.63970112 -7.54516602 11.2487793 C-7.54876129 10.23314407 -7.55235657 9.21750885 -7.55606079 8.1710968 C-7.55468613 7.25257935 -7.55331146 6.33406189 -7.55189514 5.38771057 C-7.55281693 4.58482888 -7.55373873 3.78194719 -7.55468845 2.95473576 C-7.26890418 -1.28470369 -3.42145549 0.00223023 0 0 Z " fill="#000000" transform="translate(883.431640625,76.87060546875)"/>
<path d="M0 0 C1.22355698 0.00222061 2.44711395 0.00444122 3.70774841 0.00672913 C4.71746201 0.00651009 4.71746201 0.00651009 5.74757385 0.00628662 C7.98229649 0.00698573 10.21693674 0.01477799 12.4516449 0.02259827 C13.99721226 0.02446245 15.54278022 0.02588635 17.08834839 0.02688599 C21.16380941 0.03071112 25.23923502 0.04054135 29.31468201 0.05158997 C33.47035747 0.0618042 37.62603864 0.06638363 41.78172302 0.07142639 C49.94124452 0.08216363 58.10073718 0.09923998 66.26023865 0.12025452 C68.59298789 4.78575299 67.78890502 11.05769938 67.26023865 16.12025452 C65.68325344 19.46840595 63.60901588 21.4458659 60.26023865 23.12025452 C57.48863239 23.20708897 54.742491 23.23581241 51.97117615 23.21791077 C50.7435405 23.21578835 50.7435405 23.21578835 49.49110413 23.21362305 C46.8724454 23.20801741 44.25387161 23.195464 41.63523865 23.18275452 C39.86180238 23.17774024 38.08836478 23.17317721 36.31492615 23.16908264 C31.96330445 23.15889626 27.61186683 23.13932202 23.26023865 23.12025452 C23.26023865 30.05025452 23.26023865 36.98025452 23.26023865 44.12025452 C34.48023865 44.12025452 45.70023865 44.12025452 57.26023865 44.12025452 C58.22965329 47.99791309 58.39372645 51.08121792 58.38523865 55.05775452 C58.38910583 56.86566467 58.38910583 56.86566467 58.39305115 58.71009827 C58.26023865 62.12025452 58.26023865 62.12025452 57.26023865 67.12025452 C46.04023865 67.12025452 34.82023865 67.12025452 23.26023865 67.12025452 C23.26023865 80.98025452 23.26023865 94.84025452 23.26023865 109.12025452 C17.77661395 110.68700443 14.63396271 111.37397652 9.19773865 111.30775452 C8.03113708 111.3013092 6.86453552 111.29486389 5.6625824 111.28822327 C2.44829909 111.12953879 -0.57458096 110.67610865 -3.73976135 110.12025452 C-3.76309165 95.9256941 -3.78067476 81.73113665 -3.79157352 67.53656101 C-3.79680307 60.94620666 -3.80390202 54.35586515 -3.81520081 47.76551819 C-3.82602713 41.41133434 -3.83203764 35.05716287 -3.8346386 28.7029705 C-3.83649331 26.27275841 -3.84011479 23.84254702 -3.84549141 21.41234016 C-3.85269846 18.0214247 -3.85375244 14.63056111 -3.85328674 11.23963928 C-3.85688202 10.22400406 -3.86047729 9.20836884 -3.86418152 8.16195679 C-3.86280685 7.24343933 -3.86143219 6.32492188 -3.86001587 5.37857056 C-3.86093766 4.57568887 -3.86185946 3.77280718 -3.86280918 2.94559574 C-3.65955985 -0.06948705 -3.04353534 0.13358787 0 0 Z " fill="#000000" transform="translate(794.7397613525391,76.87974548339844)"/>
<path d="M0 0 C26.73 0 53.46 0 81 0 C82.46123786 2.92247573 82.2477615 5.55853839 82.3125 8.8125 C82.36857422 10.64748047 82.36857422 10.64748047 82.42578125 12.51953125 C81.92158778 16.64096598 80.98934678 18.16343074 78 21 C73 23 73 23 54 23 C54 51.71 54 80.42 54 110 C49.43719328 110.76046779 45.62578721 111.13508461 41.0625 111.125 C39.89847656 111.12757813 38.73445312 111.13015625 37.53515625 111.1328125 C34 111 34 111 27 110 C27 81.29 27 52.58 27 23 C18.42 23 9.84 23 1 23 C0.67 22.67 0.34 22.34 0 22 C0 14.74 0 7.48 0 0 Z " fill="#000000" transform="translate(542,77)"/>
<path d="M0 0 C26.4 0 52.8 0 80 0 C81.48924558 5.95698234 82.01388111 12.13727687 79.9375 18 C78 20 78 20 71 23 C65.06 23 59.12 23 53 23 C53 51.71 53 80.42 53 110 C48.07484598 110.70359343 43.83935811 111.13585683 38.9375 111.125 C37.77089844 111.12757813 36.60429687 111.13015625 35.40234375 111.1328125 C32 111 32 111 26 110 C26 81.29 26 52.58 26 23 C17.42 23 8.84 23 0 23 C-1.13127933 20.73744135 -1.12890585 19.48212091 -1.1328125 16.97265625 C-1.13410156 16.18052734 -1.13539063 15.38839844 -1.13671875 14.57226562 C-1.13285156 13.74404297 -1.12898438 12.91582031 -1.125 12.0625 C-1.12886719 11.23814453 -1.13273437 10.41378906 -1.13671875 9.56445312 C-1.13542969 8.77103516 -1.13414062 7.97761719 -1.1328125 7.16015625 C-1.13168457 6.43449463 -1.13055664 5.70883301 -1.12939453 4.96118164 C-1 3 -1 3 0 0 Z " fill="#000000" transform="translate(273,77)"/>
<path d="M0 0 C0.72832031 -0.00128906 1.45664062 -0.00257812 2.20703125 -0.00390625 C2.95339844 -0.00003906 3.69976563 0.00382812 4.46875 0.0078125 C5.21511719 0.00394531 5.96148438 0.00007813 6.73046875 -0.00390625 C7.82294922 -0.00197266 7.82294922 -0.00197266 8.9375 0 C9.59169922 0.00112793 10.24589844 0.00225586 10.91992188 0.00341797 C13.33131589 0.15571049 15.61084344 0.61708446 17.96875 1.1328125 C18.98920748 37.85571204 19.01835671 74.41053533 17.96875 111.1328125 C13.03649994 111.87600804 8.33562881 112.26797926 3.34375 112.2578125 C2.07273437 112.26039063 0.80171875 112.26296875 -0.5078125 112.265625 C-4.03125 112.1328125 -4.03125 112.1328125 -9.03125 111.1328125 C-9.03125 74.8328125 -9.03125 38.5328125 -9.03125 1.1328125 C-5.69019645 0.46460179 -3.26856743 0.00563546 0 0 Z " fill="#000000" transform="translate(750.03125,75.8671875)"/>
<path d="M0 0 C4.85081997 3.36110114 8.8504152 6.75017369 12.5625 11.33984375 C13.97972847 12.97658859 15.43503053 14.27724934 17.125 15.625 C20 18 20 18 21.875 20.375 C24.40645446 23.50209081 27.29160753 25.89874999 30.390625 28.44921875 C30.92171875 28.96097656 31.4528125 29.47273438 32 30 C32 30.66 32 31.32 32 32 C30.89140625 32.03738281 29.7828125 32.07476562 28.640625 32.11328125 C27.17705026 32.17895448 25.71351009 32.24540135 24.25 32.3125 C23.52039063 32.33505859 22.79078125 32.35761719 22.0390625 32.38085938 C17.66514461 32.59955527 15.30910236 33.17222162 12 36 C10.7625 36.061875 9.525 36.12375 8.25 36.1875 C2.50843594 36.64078137 -0.40634578 40.92204047 -4 45 C5.03151104 46.33000402 14.0658344 47.52468282 23.13671875 48.55078125 C24.965196 48.7594281 24.965196 48.7594281 26.83061218 48.97229004 C30.10559727 49.34480019 33.38081859 49.71511339 36.65624237 50.08374405 C38.70321118 50.31426936 40.75008056 50.54566193 42.79693604 50.77719116 C64.04782941 53.17815251 85.31230938 55.3921469 106.60424805 57.40161133 C117.43020433 58.42646564 128.22012109 59.56274769 139 61 C139 61.66 139 62.32 139 63 C85.54 63 32.08 63 -23 63 C-23 45 -23 45 -19.0625 39.515625 C-17.41840924 38.04377232 -15.72918095 36.6208822 -14 35.25 C-12.30057111 33.81084401 -10.61244898 32.35819934 -8.9375 30.890625 C-8.18339844 30.28250977 -7.42929687 29.67439453 -6.65234375 29.04785156 C-4.43227373 26.2963818 -4.85270813 24.44889125 -5 21 C-4.03320312 19.83404297 -4.03320312 19.83404297 -3.046875 18.64453125 C-0.25043367 15.03157175 -0.33747797 12.13694776 -0.25 7.6875 C-0.20552734 6.57665039 -0.20552734 6.57665039 -0.16015625 5.44335938 C-0.08994155 3.62947954 -0.04264952 1.81473722 0 0 Z " fill="#010101" transform="translate(42,151)"/>
<path d="M0 0 C2.64 0 5.28 0 8 0 C8 74.25 8 148.5 8 225 C5.36 225 2.72 225 0 225 C-0.96185414 199.3512903 -1.07806456 173.74845774 -0.89946485 148.08468461 C-0.86437602 142.85316831 -0.83628589 137.62161377 -0.80735779 132.39006042 C-0.75190749 122.5455542 -0.6904374 112.70109578 -0.62663645 102.85664052 C-0.55413607 91.62269652 -0.4886025 80.38871497 -0.42356598 69.15472567 C-0.28996257 46.10310168 -0.14789664 23.05153641 0 0 Z " fill="#000000" transform="translate(229,19)"/>
<path d="M0 0 C3.3876041 2.45857934 6.30662288 5.23129378 9.265625 8.18359375 C9.84634766 8.73982422 10.42707031 9.29605469 11.02539062 9.86914062 C15.08187854 13.89749106 17.08902624 17.25176295 17.87109375 23.0390625 C17.42790137 31.5253758 11.321858 37.12736075 5.578125 42.87109375 C2.38228671 42.5306947 0.69842399 41.3740819 -1.55395508 39.15893555 C-2.13748245 38.59132004 -2.72100983 38.02370453 -3.32221985 37.43888855 C-3.93905136 36.82225845 -4.55588287 36.20562836 -5.19140625 35.5703125 C-5.83180344 34.93752884 -6.47220062 34.30474518 -7.13200378 33.65278625 C-8.48143156 32.31415415 -9.82691279 30.97153355 -11.16870117 29.62524414 C-13.23033358 27.56263709 -15.31237143 25.52228092 -17.39648438 23.48242188 C-18.7044235 22.1796878 -20.01110842 20.87569305 -21.31640625 19.5703125 C-22.25683525 18.65447639 -22.25683525 18.65447639 -23.21626282 17.72013855 C-24.93676758 15.97143555 -24.93676758 15.97143555 -27.421875 12.87109375 C-26.79600134 7.78641574 -23.1299596 5.06266761 -19.421875 1.87109375 C-13.9298906 -1.99825889 -6.17349098 -2.87764337 0 0 Z " fill="#000000" transform="translate(158.421875,51.12890625)"/>
<path d="M0 0 C3.3 0.33 6.6 0.66 10 1 C10 1.66 10 2.32 10 3 C6.37 3 2.74 3 -1 3 C-0.67 2.01 -0.34 1.02 0 0 Z " fill="#010101" transform="translate(171,211)"/>
<path d="" fill="#FFFFFF" transform="translate(0,0)"/>
<path d="" fill="#FFFFFF" transform="translate(0,0)"/>
<path d="" fill="#FFFFFF" transform="translate(0,0)"/>
<path d="" fill="#FFFFFF" transform="translate(0,0)"/>
<path d="" fill="#FFFFFF" transform="translate(0,0)"/>
<path d="" fill="#FFFFFF" transform="translate(0,0)"/>
<path d="" fill="#FFFFFF" transform="translate(0,0)"/>
<path d="" fill="#FFFFFF" transform="translate(0,0)"/>
<path d="" fill="#FFFFFF" transform="translate(0,0)"/>
<path d="" fill="#FFFFFF" transform="translate(0,0)"/>
<path d="" fill="#FFFFFF" transform="translate(0,0)"/>
<path d="" fill="#FFFFFF" transform="translate(0,0)"/>
<path d="" fill="#FFFFFF" transform="translate(0,0)"/>
<path d="" fill="#FFFFFF" transform="translate(0,0)"/>
<path d="" fill="#FFFFFF" transform="translate(0,0)"/>
<path d="" fill="#FFFFFF" transform="translate(0,0)"/>
<path d="" fill="#FFFFFF" transform="translate(0,0)"/>
<path d="" fill="#FFFFFF" transform="translate(0,0)"/>
<path d="" fill="#FFFFFF" transform="translate(0,0)"/>
<path d="" fill="#FFFFFF" transform="translate(0,0)"/>
<path d="" fill="#FFFFFF" transform="translate(0,0)"/>
<path d="" fill="#FFFFFF" transform="translate(0,0)"/>
<path d="" fill="#FFFFFF" transform="translate(0,0)"/>
<path d="" fill="#FFFFFF" transform="translate(0,0)"/>
<path d="" fill="#FFFFFF" transform="translate(0,0)"/>
<path d="" fill="#FFFFFF" transform="translate(0,0)"/>
<path d="" fill="#FFFFFF" transform="translate(0,0)"/>
<path d="" fill="#FFFFFF" transform="translate(0,0)"/>
<path d="" fill="#FFFFFF" transform="translate(0,0)"/>
<path d="" fill="#FFFFFF" transform="translate(0,0)"/>
<path d="" fill="#FFFFFF" transform="translate(0,0)"/>
<path d="" fill="#FFFFFF" transform="translate(0,0)"/>
<path d="" fill="#FFFFFF" transform="translate(0,0)"/>
<path d="" fill="#FFFFFF" transform="translate(0,0)"/>
<path d="" fill="#FFFFFF" transform="translate(0,0)"/>
<path d="" fill="#FFFFFF" transform="translate(0,0)"/>
<path d="" fill="#FFFFFF" transform="translate(0,0)"/>
<path d="" fill="#FFFFFF" transform="translate(0,0)"/>
<path d="" fill="#FFFFFF" transform="translate(0,0)"/>
<path d="" fill="#FFFFFF" transform="translate(0,0)"/>
<path d="" fill="#FFFFFF" transform="translate(0,0)"/>
<path d="" fill="#FFFFFF" transform="translate(0,0)"/>
<path d="" fill="#FFFFFF" transform="translate(0,0)"/>
<path d="" fill="#FFFFFF" transform="translate(0,0)"/>
<path d="" fill="#FFFFFF" transform="translate(0,0)"/>
<path d="" fill="#FFFFFF" transform="translate(0,0)"/>
<path d="" fill="#FFFFFF" transform="translate(0,0)"/>
<path d="" fill="#FFFFFF" transform="translate(0,0)"/>
<path d="" fill="#FFFFFF" transform="translate(0,0)"/>
<path d="" fill="#FFFFFF" transform="translate(0,0)"/>
<path d="" fill="#FFFFFF" transform="translate(0,0)"/>
<path d="" fill="#FFFFFF" transform="translate(0,0)"/>
<path d="" fill="#FFFFFF" transform="translate(0,0)"/>
<path d="" fill="#FFFFFF" transform="translate(0,0)"/>
<path d="" fill="#FFFFFF" transform="translate(0,0)"/>
<path d="" fill="#FFFFFF" transform="translate(0,0)"/>
<path d="" fill="#FFFFFF" transform="translate(0,0)"/>
<path d="" fill="#FFFFFF" transform="translate(0,0)"/>
<path d="" fill="#FFFFFF" transform="translate(0,0)"/>
<path d="" fill="#FFFFFF" transform="translate(0,0)"/>
<path d="" fill="#FFFFFF" transform="translate(0,0)"/>
<path d="" fill="#FFFFFF" transform="translate(0,0)"/>
<path d="" fill="#FFFFFF" transform="translate(0,0)"/>
<path d="" fill="#FFFFFF" transform="translate(0,0)"/>
<path d="" fill="#FFFFFF" transform="translate(0,0)"/>
<path d="" fill="#FFFFFF" transform="translate(0,0)"/>
<path d="" fill="#FFFFFF" transform="translate(0,0)"/>
<path d="" fill="#FFFFFF" transform="translate(0,0)"/>
<path d="" fill="#FFFFFF" transform="translate(0,0)"/>
<path d="" fill="#FFFFFF" transform="translate(0,0)"/>
</svg>
